inDegrees=yes
name=ik_Xsens
DataType=double
version=3
OpenSimVersion=4.4-2022-07-23-0e9fedc
endheader
time	pelvis_tilt	pelvis_list	pelvis_rotation	pelvis_tx	pelvis_ty	pelvis_tz	hip_flexion_r	hip_adduction_r	hip_rotation_r	knee_angle_r	knee_angle_r_beta	ankle_angle_r	subtalar_angle_r	mtp_angle_r	hip_flexion_l	hip_adduction_l	hip_rotation_l	knee_angle_l	knee_angle_l_beta	ankle_angle_l	subtalar_angle_l	mtp_angle_l	lumbar_extension	lumbar_bending	lumbar_rotation	arm_flex_r	arm_add_r	arm_rot_r	elbow_flex_r	pro_sup_r	wrist_flex_r	wrist_dev_r	arm_flex_l	arm_add_l	arm_rot_l	elbow_flex_l	pro_sup_l	wrist_flex_l	wrist_dev_l
27	-2.094842701539499e-25	3.03858828914834e-24	-5.29166108427355e-24	-1.614669746368475e-15	0.93	-3.797967484290695e-25	-1.377160931595937e-14	-1.29494451679251e-15	6.712208287069385e-14	2.88314592363407e-15	1.447124008905426e-14	-2.845146431803792e-13	-1.531971078562138e-13	-9.830716066560535e-16	5.904948583694744e-14	3.420076764823685e-14	-1.142375622980423e-13	2.883171180586889e-15	1.685196739126618e-15	1.218032624072486e-14	5.006589198193166e-13	6.376174646735849e-16	-1.883889598134779e-13	4.82202804209589e-13	2.77428590846557e-13	-2.722134017484597	14.59098863516629	-9.147210990934138	166.1731495885161	113.985063485551	-2.532274294048371e-17	3.00268857750048e-17	67.59796961338466	-30.47470433371951	1.923893340314643	-58.86501921067673	77.51555135942611	-5.807625911609189e-19	5.131734513517444e-19
27.01666666666667	0	2.243160457699235e-23	0	8.059166636896382e-25	0.93	4.155202189471757e-25	0	9.844974379428285e-40	-4.421889417588753e-23	3.14440618266955e-07	5.488024091354843e-09	2.142738637903109e-18	-3.804049462174957e-25	2.06454580683355e-24	2.507422087652782e-24	2.569231611007218e-42	2.446441908238137e-29	3.144406182669277e-07	5.488024091525308e-09	-3.163507029121788e-23	1.522220172772172e-24	2.227983075936731e-23	-1.446348815745076e-27	8.985442017816284e-26	-5.22855096891845e-25	-2.782362937502981	14.49780635483533	-9.155866905814852	166.1757289710658	113.8326623432265	5.216434272886611e-24	3.66582367841278e-24	67.65051738181162	-30.48036681087718	1.861682728705451	-58.88673380058159	77.16313943957717	2.466403053132789e-23	2.631860817171569e-23
27.03333333333333	-1.872306048898654e-25	-6.208312979267806e-18	-2.883859507207195e-26	-1.266697428747541e-25	0.93	1.217156903810647e-24	-5.406927453727215e-32	-7.722731654926562e-23	-6.610899753682172e-32	1.060133846729256e-15	1.850679973739606e-17	1.986611624602423e-21	1.875668570881407e-20	2.223946321148564e-18	-2.413876511297664e-22	1.154455531581462e-31	-2.74493629180661e-22	1.059051226254126e-15	1.848392188933194e-17	-1.621999343049655e-19	1.74995429825767e-25	4.131635919426747e-19	-4.728619877498801e-26	-1.406341962183337e-26	2.840111776854011e-24	-2.737601027349689	14.3964840450625	-9.142825176227387	166.106842978212	113.6317683900989	1.690163248998429e-19	1.478238330983082e-18	67.66110734106772	-30.45896316678938	1.745355264980053	-58.85537690283086	76.73026406692905	1.136141287698179e-19	7.773483110733261e-19
27.05	0	0	0	0	0.93	0	0	0	0	0	0	0	0	0	0	0	0	0	0	0	0	0	0	0	0	-2.710576961061085	14.32420071681413	-8.977203873383129	166.0589232355555	113.7499345636915	0	0	67.65148757211065	-30.53288570873034	1.664856494168746	-58.96670902319533	76.89038075582606	0	0
27.06666666666667	0	0	0	0	0.93	0	0	0	0	0	0	0	0	0	0	0	0	0	0	0	0	0	0	0	0	-2.655304890175655	14.23880879853235	-8.932620855992617	166.0046796876424	113.8874690248727	0	0	67.75666706187846	-30.72216924653745	1.643289159055722	-59.36540982105539	77.28335118641068	0	0
27.08333333333333	0	0	0	0	0.93	0	0	0	0	0	0	0	0	0	0	0	0	0	0	0	0	0	0	0	0	-2.603194078397689	14.06447131850454	-9.136985226145121	165.932159995896	113.7480870268432	0	0	67.79329645341204	-30.81782808191123	1.569853887572174	-59.61748389576427	77.13116839243956	0	0
27.1	0	0	0	0	0.93	0	0	0	0	1.052357267868557e-38	0	0	0	0	0	0	0	1.052357267868557e-38	0	0	0	0	0	0	0	-2.520150364790088	13.91318210814544	-9.338030065037515	165.8139069857804	113.623441580288	0	0	67.811959950597	-30.90959188809716	1.448937778188081	-59.92137858563806	76.851658673483	0	0
